<svg width="17" height="16" viewBox="0 0 17 16" fill="none" xmlns="http://www.w3.org/2000/svg">
<path d="M8.49967 11.75C9.54023 11.75 10.4254 11.3852 11.1551 10.6555C11.8848 9.92573 12.2497 9.0406 12.2497 8.00004C12.2497 6.95949 11.8848 6.07435 11.1551 5.34462C10.4254 4.6149 9.54023 4.25004 8.49967 4.25004C7.45912 4.25004 6.57398 4.6149 5.84426 5.34462C5.11454 6.07435 4.74967 6.95949 4.74967 8.00004C4.74967 9.0406 5.11454 9.92573 5.84426 10.6555C6.57398 11.3852 7.45912 11.75 8.49967 11.75ZM8.50113 15.9167C7.40613 15.9167 6.3769 15.7089 5.41342 15.2934C4.44995 14.8778 3.6119 14.3139 2.89926 13.6015C2.18662 12.8891 1.62238 12.0514 1.20655 11.0884C0.790855 10.1253 0.583008 9.09636 0.583008 8.0015C0.583008 6.9065 0.790786 5.87726 1.20634 4.91379C1.6219 3.95032 2.18586 3.11226 2.89822 2.39962C3.61058 1.68698 4.44829 1.12275 5.41134 0.706916C6.3744 0.291221 7.40335 0.083374 8.49822 0.083374C9.59322 0.083374 10.6225 0.291151 11.5859 0.706707C12.5494 1.12226 13.3875 1.68622 14.1001 2.39858C14.8127 3.11094 15.377 3.94865 15.7928 4.91171C16.2085 5.87476 16.4163 6.90372 16.4163 7.99858C16.4163 9.09358 16.2086 10.1228 15.793 11.0863C15.3775 12.0498 14.8135 12.8878 14.1011 13.6005C13.3888 14.3131 12.5511 14.8773 11.588 15.2932C10.625 15.7089 9.59599 15.9167 8.50113 15.9167ZM8.49967 14.6667C10.3608 14.6667 11.9372 14.0209 13.2288 12.7292C14.5205 11.4375 15.1663 9.86115 15.1663 8.00004C15.1663 6.13893 14.5205 4.56254 13.2288 3.27087C11.9372 1.97921 10.3608 1.33337 8.49967 1.33337C6.63856 1.33337 5.06217 1.97921 3.77051 3.27087C2.47884 4.56254 1.83301 6.13893 1.83301 8.00004C1.83301 9.86115 2.47884 11.4375 3.77051 12.7292C5.06217 14.0209 6.63856 14.6667 8.49967 14.6667Z" fill="#0085A5"/>
</svg>
