<svg width="22" height="17" viewBox="0 0 22 17" fill="none" xmlns="http://www.w3.org/2000/svg">
<path d="M0 16.8867V14.0867C0 13.5201 0.145833 12.9992 0.4375 12.5242C0.729167 12.0492 1.11667 11.6867 1.6 11.4367C2.63333 10.9201 3.68333 10.5326 4.75 10.2742C5.81667 10.0159 6.9 9.88672 8 9.88672C9.1 9.88672 10.1833 10.0159 11.25 10.2742C12.3167 10.5326 13.3667 10.9201 14.4 11.4367C14.8833 11.6867 15.2708 12.0492 15.5625 12.5242C15.8542 12.9992 16 13.5201 16 14.0867V16.8867H0ZM18 16.8867V13.8867C18 13.1534 17.7958 12.4492 17.3875 11.7742C16.9792 11.0992 16.4 10.5201 15.65 10.0367C16.5 10.1367 17.3 10.3076 18.05 10.5492C18.8 10.7909 19.5 11.0867 20.15 11.4367C20.75 11.7701 21.2083 12.1409 21.525 12.5492C21.8417 12.9576 22 13.4034 22 13.8867V16.8867H18ZM8 8.88672C6.9 8.88672 5.95833 8.49505 5.175 7.71172C4.39167 6.92839 4 5.98672 4 4.88672C4 3.78672 4.39167 2.84505 5.175 2.06172C5.95833 1.27839 6.9 0.886719 8 0.886719C9.1 0.886719 10.0417 1.27839 10.825 2.06172C11.6083 2.84505 12 3.78672 12 4.88672C12 5.98672 11.6083 6.92839 10.825 7.71172C10.0417 8.49505 9.1 8.88672 8 8.88672ZM18 4.88672C18 5.98672 17.6083 6.92839 16.825 7.71172C16.0417 8.49505 15.1 8.88672 14 8.88672C13.8167 8.88672 13.5833 8.86589 13.3 8.82422C13.0167 8.78255 12.7833 8.73672 12.6 8.68672C13.05 8.15339 13.3958 7.56172 13.6375 6.91172C13.8792 6.26172 14 5.58672 14 4.88672C14 4.18672 13.8792 3.51172 13.6375 2.86172C13.3958 2.21172 13.05 1.62005 12.6 1.08672C12.8333 1.00339 13.0667 0.949219 13.3 0.924219C13.5333 0.899219 13.7667 0.886719 14 0.886719C15.1 0.886719 16.0417 1.27839 16.825 2.06172C17.6083 2.84505 18 3.78672 18 4.88672ZM2 14.8867H14V14.0867C14 13.9034 13.9542 13.7367 13.8625 13.5867C13.7708 13.4367 13.65 13.3201 13.5 13.2367C12.6 12.7867 11.6917 12.4492 10.775 12.2242C9.85833 11.9992 8.93333 11.8867 8 11.8867C7.06667 11.8867 6.14167 11.9992 5.225 12.2242C4.30833 12.4492 3.4 12.7867 2.5 13.2367C2.35 13.3201 2.22917 13.4367 2.1375 13.5867C2.04583 13.7367 2 13.9034 2 14.0867V14.8867ZM8 6.88672C8.55 6.88672 9.02083 6.69089 9.4125 6.29922C9.80417 5.90755 10 5.43672 10 4.88672C10 4.33672 9.80417 3.86589 9.4125 3.47422C9.02083 3.08255 8.55 2.88672 8 2.88672C7.45 2.88672 6.97917 3.08255 6.5875 3.47422C6.19583 3.86589 6 4.33672 6 4.88672C6 5.43672 6.19583 5.90755 6.5875 6.29922C6.97917 6.69089 7.45 6.88672 8 6.88672Z" fill="#1D2235"/>
</svg>
